<svg width="50" height="50" viewBox="0 0 50 50" fill="none" xmlns="http://www.w3.org/2000/svg">
<path d="M25.0019 40.4941H24.9885C24.4254 40.4941 23.9688 40.9507 23.9688 41.5139C23.9688 42.0771 24.4254 42.5336 24.9885 42.5336H25.0019C25.5649 42.5336 26.0216 42.0771 26.0216 41.5139C26.0216 40.9507 25.5649 40.4941 25.0019 40.4941Z" fill="black"/>
<path d="M24.9882 40.4941H24.9748C24.4117 40.4941 23.9551 40.9507 23.9551 41.5139C23.9551 42.0771 24.4117 42.5336 24.9748 42.5336H24.9882C25.5513 42.5336 26.0079 42.0771 26.0079 41.5139C26.0079 40.9507 25.5513 40.4941 24.9882 40.4941Z" fill="black"/>
<path d="M1.03311 47.3994H1.01973C0.456641 47.3994 0 47.856 0 48.4191C0 48.9823 0.456641 49.4389 1.01973 49.4389H1.03311C1.59619 49.4389 2.05283 48.9823 2.05283 48.4191C2.05283 47.856 1.59619 47.3994 1.03311 47.3994Z" fill="black"/>
<path d="M48.9467 47.4004H48.9333C48.3702 47.4004 47.9136 47.8569 47.9136 48.4201C47.9136 48.9833 48.3702 49.4398 48.9333 49.4398H48.9467C49.5098 49.4398 49.9664 48.9833 49.9664 48.4201C49.9664 47.8568 49.5098 47.4004 48.9467 47.4004Z" fill="black"/>
<path d="M28.7023 20.1738C28.0739 20.1738 27.5625 20.6852 27.5625 21.3137C27.5625 21.9421 28.0739 22.4534 28.7023 22.4534C29.3308 22.4534 29.842 21.9421 29.8421 21.3137C29.8421 20.6851 29.3308 20.1738 28.7023 20.1738Z" fill="black"/>
<path d="M21.2647 20.1738C20.6363 20.1738 20.125 20.6852 20.125 21.3137C20.125 21.9421 20.6363 22.4534 21.2647 22.4534C21.8932 22.4534 22.4046 21.9421 22.4046 21.3137C22.4046 20.6851 21.8932 20.1738 21.2647 20.1738Z" fill="black"/>
<path d="M25.9844 24.9775H23.9914C23.4283 24.9775 22.9717 25.4341 22.9717 25.9973C22.9717 27.109 23.8762 28.0135 24.9879 28.0135C26.0996 28.0135 27.004 27.1091 27.0041 25.9973C27.0041 25.4341 26.5475 24.9775 25.9844 24.9775Z" fill="black"/>
<path d="M7.68081 42.9564L5.30132 40.577L6.09448 39.7837C6.49272 39.3855 6.49272 38.7398 6.09448 38.3417C5.69614 37.9434 5.05073 37.9434 4.65229 38.3417L1.62388 41.3702C1.22563 41.7684 1.22563 42.4141 1.62388 42.8123C1.823 43.0114 2.08394 43.1109 2.34497 43.1109C2.60601 43.1109 2.86685 43.0113 3.06606 42.8123L3.85913 42.0191L6.23862 44.3985C6.43774 44.5976 6.69868 44.6971 6.95972 44.6971C7.22065 44.6971 7.48159 44.5975 7.68071 44.3985C8.07915 44.0002 8.07915 43.3545 7.68081 42.9564Z" fill="black"/>
<path d="M49.7013 12.502L46.6729 9.47349C46.2748 9.07524 45.6293 9.07524 45.2307 9.47349C44.8325 9.87173 44.8325 10.5173 45.2307 10.9156L46.0239 11.7088L43.6444 14.0882C43.2461 14.4865 43.2461 15.1322 43.6444 15.5303C43.8435 15.7294 44.1044 15.829 44.3655 15.829C44.6265 15.829 44.8874 15.7293 45.0866 15.5303L47.4661 13.1509L48.2591 13.9441C48.4582 14.1432 48.7192 14.2427 48.9802 14.2427C49.2413 14.2427 49.5021 14.1431 49.7013 13.9441C50.0996 13.5459 50.0996 12.9001 49.7013 12.502Z" fill="black"/>
<path d="M47.7277 27.4132H38.6457C38.0826 27.4132 37.626 27.8697 37.626 28.4329V33.9411C37.626 34.5043 38.0826 34.9608 38.6457 34.9608H40.9434V47.3998H39.9767V40.5049C39.9767 38.5171 38.777 36.6292 37.0597 35.9136L30.4969 33.1792C30.2636 33.082 30.1128 32.8559 30.1128 32.6029V31.0151L32.7783 29.4868C32.7969 29.4761 32.8151 29.4649 32.833 29.453C34.1677 28.5717 35.0439 27.0043 35.1772 25.2602C35.1793 25.2344 35.1802 25.2084 35.1802 25.1824V24.3358C36.5044 23.9051 37.4643 22.659 37.4643 21.193C37.4643 19.727 36.5043 18.4807 35.1801 18.05V17.318H36.4405C37.207 17.318 37.8306 16.6944 37.8306 15.9279V13.8537C37.8306 13.1834 37.3536 12.6224 36.7214 12.4921C36.3493 9.88047 35.1225 7.46348 33.2103 5.60801C31.8399 4.27842 30.1808 3.3002 28.3728 2.7499V1.99688C28.3728 1.20488 27.7493 0.560547 26.9826 0.560547H22.9823C22.2157 0.560547 21.5921 1.20488 21.5921 1.99688V2.6916C19.707 3.22939 17.9798 4.22764 16.5573 5.60801C14.6305 7.47754 13.3996 9.91689 13.0377 12.5516C12.5106 12.7493 12.1346 13.2583 12.1346 13.8537V15.9279C12.1346 16.6944 12.7581 17.318 13.5246 17.318H14.7853V18.05C13.461 18.4808 12.5012 19.7269 12.5012 21.1929C12.5012 22.6589 13.461 23.9051 14.7853 24.3357V25.1823C14.7853 25.2082 14.7862 25.2342 14.7882 25.2601C14.9221 27.0113 15.7923 28.5787 17.116 29.4529C17.1343 29.465 17.1528 29.4765 17.1719 29.4873L19.8526 31.0198V32.6028C19.8526 32.8557 19.7019 33.0818 19.4685 33.1791L12.9057 35.9136C11.1882 36.6292 9.98867 38.5173 9.98867 40.5048V47.3997H4.33174C3.76865 47.3997 3.31201 47.8562 3.31201 48.4194C3.31201 48.9826 3.76865 49.4392 4.33174 49.4392H45.6342C46.1973 49.4392 46.6539 48.9826 46.6539 48.4194C46.6539 47.8562 46.1973 47.3997 45.6342 47.3997H45.4303V34.9608H47.7278C48.2909 34.9608 48.7476 34.5043 48.7476 33.9411V28.4329C48.7475 27.8697 48.2908 27.4132 47.7277 27.4132ZM14.1745 15.2783V14.482C14.6163 14.3915 14.9567 14.0146 14.9865 13.548C15.1435 11.0912 16.2058 8.79111 17.9781 7.07149C19.3253 5.76436 21.0004 4.87051 22.8226 4.48662C23.2943 4.38721 23.632 3.9709 23.632 3.48887V2.5999H26.3337V3.53242C26.3337 4.00752 26.6617 4.41963 27.1247 4.52617C28.8762 4.9293 30.4895 5.80947 31.7902 7.07158C33.5624 8.79111 34.6248 11.0912 34.7817 13.5481C34.8158 14.0822 35.2569 14.4987 35.7913 14.5028V15.2784H14.1745V15.2783ZM18.2153 27.7344C17.4361 27.2067 16.9188 26.2419 16.825 25.1412V23.477C16.825 22.9138 16.3684 22.4572 15.8053 22.4572C15.1081 22.4572 14.5409 21.8899 14.5409 21.1929C14.5409 20.4958 15.1082 19.9285 15.8053 19.9285C16.3684 19.9285 16.825 19.472 16.825 18.9088V17.3179H33.1406V18.9088C33.1406 19.472 33.5973 19.9285 34.1603 19.9285C34.8575 19.9285 35.4247 20.4958 35.4247 21.1929C35.4247 21.8899 34.8575 22.4572 34.1603 22.4572C33.5973 22.4572 33.1406 22.9138 33.1406 23.477V25.141C33.048 26.2193 32.5118 27.2076 31.7333 27.7347L26.2585 30.874C26.2399 30.8848 26.2217 30.8959 26.2038 30.9078C25.4393 31.4127 24.5267 31.4127 23.7621 30.9078C23.7438 30.8958 23.7253 30.8843 23.7062 30.8734L18.2153 27.7344ZM28.0755 32.6647C27.344 33.6325 26.2134 34.2024 24.9879 34.2024C23.7563 34.2024 22.6218 33.628 21.8907 32.6525C21.891 32.6359 21.8926 32.6196 21.8926 32.6028V32.1856L22.6675 32.6286C23.3833 33.0935 24.1831 33.3259 24.9831 33.3259C25.7833 33.3259 26.5834 33.0933 27.2993 32.6282L28.0734 32.1844V32.6028C28.0732 32.6236 28.0751 32.644 28.0755 32.6647ZM14.2298 47.3998H12.0286V40.5049C12.0286 39.3556 12.7432 38.191 13.6906 37.7962L14.2298 37.5716V47.3998ZM16.2692 47.3998V36.7217L18.1558 35.9356V41.513C18.1558 42.0762 18.6124 42.5327 19.1755 42.5327H21.6757C22.2388 42.5327 22.6954 42.0762 22.6954 41.513C22.6954 40.9498 22.2388 40.4933 21.6757 40.4933H20.1952V35.0858L20.2534 35.0615C20.5075 34.9556 20.7384 34.8134 20.9417 34.6432C22.0234 35.6619 23.4568 36.2418 24.9878 36.2418C26.5154 36.2418 27.9474 35.6634 29.0289 34.6477C29.2312 34.8161 29.4604 34.9566 29.7124 35.0616L29.7806 35.0899V40.4932H28.3001C27.737 40.4932 27.2804 40.9497 27.2804 41.5129C27.2804 42.0761 27.737 42.5326 28.3001 42.5326H30.8003C31.3634 42.5326 31.82 42.0761 31.82 41.5129V35.9396L33.7065 36.7257V47.3995H16.2692V47.3998ZM37.9372 47.3998H35.746V37.5756L36.2752 37.7962C37.2227 38.1909 37.9371 39.3555 37.9371 40.5049V47.3998H37.9372ZM43.3908 47.3998H42.9829V34.9608H43.3908V47.3998ZM46.708 32.9214H39.6655V29.4525H46.708V32.9214Z" fill="#552D1E"/>
<path d="M11.302 29.1127L9.40713 26.6932L10.2104 24.1969C10.3035 23.9076 10.2628 23.5919 10.0992 23.3357L8.7375 21.2031L9.34043 19.35C9.43115 19.071 9.39746 18.7665 9.24775 18.5143L8.06191 16.5154L8.54277 14.4888C8.60801 14.2142 8.55645 13.9248 8.40039 13.6896L7.09355 11.7199L8.0376 9.81113C8.16016 9.56328 8.17676 9.27627 8.08379 9.01592L7.17217 6.46494L7.55439 4.14189C7.604 3.83984 7.51543 3.53145 7.31309 3.30195L6.17422 2.01045C5.98066 1.79092 5.70195 1.66504 5.40928 1.66504H1.03291C0.469824 1.66504 0.0131836 2.12158 0.0131836 2.68477V33.9224C0.0131836 34.4855 0.469824 34.9421 1.03291 34.9421H10.4992C11.0623 34.9421 11.5189 34.4855 11.5189 33.9224V29.7415C11.5189 29.5136 11.4426 29.2922 11.302 29.1127ZM2.05264 3.70449H4.94893L5.46338 4.28809L5.11699 6.39424C5.08896 6.56494 5.10478 6.74004 5.16289 6.90303L6.01777 9.29502L5.00518 11.3424C4.84404 11.6683 4.86855 12.0553 5.06953 12.3582L6.45654 14.4486L5.98271 16.4459C5.92168 16.7032 5.96289 16.9741 6.09785 17.2017L7.2585 19.158L6.64922 21.0306C6.55488 21.3207 6.59541 21.6377 6.75947 21.8948L8.12217 24.0291L7.62783 25.5651H2.05264V3.70449ZM9.47949 32.9026H2.05264V27.6043H7.53008L9.47949 30.0934V32.9026Z" fill="black"/>
<path d="M6.07266 29.54H3.72725C3.16416 29.54 2.70752 29.9966 2.70752 30.5598C2.70752 31.123 3.16416 31.5795 3.72725 31.5795H6.07266C6.63574 31.5795 7.09238 31.123 7.09238 30.5598C7.09238 29.9966 6.63574 29.54 6.07266 29.54Z" fill="black"/>
<path d="M23.6733 6.96171C23.5654 6.40887 23.0295 6.04774 22.4774 6.15585C21.209 6.40292 20.0415 6.97977 19.1008 7.82391C17.8454 8.95048 17.0926 10.464 16.9805 12.0858C16.9417 12.6477 17.3657 13.1347 17.9277 13.1733C17.9515 13.175 17.9753 13.1758 17.9988 13.1758C18.5301 13.1758 18.9779 12.7642 19.0154 12.2263C19.0905 11.1366 19.6047 10.1122 20.4633 9.34169C21.1295 8.74374 21.9609 8.33417 22.8675 8.1576C23.4201 8.04999 23.7811 7.51444 23.6733 6.96171Z" fill="black"/>
</svg>
