<svg width="50" height="50" viewBox="0 0 50 50" fill="none" xmlns="http://www.w3.org/2000/svg">
<g clip-path="url(#clip0)">
<path d="M27.2523 11.1064H22.7482C22.3436 11.1064 22.0156 11.4345 22.0156 11.8391V17.6537C22.0156 18.0583 22.3436 18.3863 22.7482 18.3863H27.2523C27.657 18.3863 27.9849 18.0583 27.9849 17.6537V11.839C27.9849 11.4345 27.6569 11.1064 27.2523 11.1064ZM26.5197 16.9211H23.4808V12.5716H26.5197V16.9211Z" fill="black"/>
<path d="M40.3226 22.8417H36.4928V17.0284C36.4928 17.0284 38.4018 15.3658 38.4052 15.3627C38.708 15.0991 38.7395 14.6309 38.4765 14.3291C38.4765 14.3291 26.6456 0.745482 26.6344 0.732689C25.7832 -0.244653 24.216 -0.243774 23.3657 0.732591C23.3657 0.732591 11.5304 14.3213 11.5236 14.3291C11.2598 14.632 11.2925 15.0993 11.5948 15.3626L13.5071 17.0283V22.8416H9.67744V22.8417C9.27275 22.8417 8.94482 23.1697 8.94482 23.5743V33.9449C8.94482 34.3495 9.27275 34.6775 9.67744 34.6775H14.0211V49.2674C14.0211 49.672 14.349 50 14.7537 50H17.6232C18.0279 50 18.3558 49.672 18.3558 49.2674V48.3036L25.0001 44.2888L31.6443 48.3036V49.2674C31.6443 49.672 31.9722 50 32.3769 50H35.2465C35.6512 50 35.9791 49.672 35.9791 49.2674V34.6774H40.3227C40.7274 34.6774 41.0553 34.3494 41.0553 33.9448V23.5742C41.0552 23.1697 40.7273 22.8417 40.3226 22.8417ZM13.1094 14.739L24.4705 1.69489C24.6038 1.54187 24.7968 1.45388 24.9999 1.45388C25.2029 1.45388 25.396 1.54167 25.5294 1.69489L36.8904 14.739L35.8314 15.6613C35.8314 15.6613 34.5366 14.1748 34.5297 14.1669C33.9105 13.4559 32.8011 14.4132 33.4249 15.1291L35.0275 16.9691V22.8416H14.9724V16.9691L25 5.45612L31.5224 12.9448C31.788 13.25 32.2507 13.2818 32.5559 13.0161C32.8611 12.7502 32.8929 12.2875 32.6271 11.9825C32.6271 11.9825 25.5623 3.87096 25.5522 3.85944C25.2628 3.52712 24.7356 3.52829 24.4473 3.85944L14.1684 15.6613L13.1094 14.739ZM10.4101 27.1763H11.8144V30.3427H10.4101V27.1763ZM16.8906 48.5347H15.4863V34.6774H16.8906V48.5347ZM18.3556 38.5618V36.921L23.5834 40.0799L22.2258 40.9003L18.3556 38.5618ZM20.8094 41.7562L18.3557 43.2389V40.2736L20.8094 41.7562ZM31.6442 46.5917L26.4165 43.4327L27.7742 42.6123L31.6442 44.9509V46.5917ZM31.6443 43.239L29.1908 41.7563L31.6443 40.2738V43.239ZM31.6443 38.5618L18.3557 46.5916V44.9508L31.6443 36.921V38.5618ZM31.6443 35.2091L25.0001 39.224L18.3558 35.2092V34.6774H31.6444V35.2091H31.6443ZM34.5138 48.5347H33.1093V34.6774H34.5137V48.5347H34.5138ZM39.5899 33.2123H10.4101V31.8079H39.5899V33.2123ZM13.2797 30.3428V27.1764H15.8889V30.3428H13.2797ZM17.354 30.3428V27.1764H18.7583V30.3428H17.354ZM20.2235 30.3428V27.1764H22.8328V30.3428H20.2235ZM24.2979 30.3428V27.1764H25.7022V30.3428H24.2979ZM27.1673 30.3428V27.1764H29.7764V30.3428H27.1673ZM31.2416 30.3428V27.1764H32.646V30.3428H31.2416ZM34.1112 30.3428V27.1764H36.7204V30.3428H34.1112ZM38.1855 30.3428V27.1764H39.5898V30.3428H38.1855ZM39.5899 25.7112H10.4101V24.3069H39.5899V25.7112Z" fill="#552D1E"/>
</g>
<defs>
<clipPath id="clip0">
<rect width="50" height="50" fill="white"/>
</clipPath>
</defs>
</svg>
