<svg width="50" height="50" viewBox="0 0 50 50" fill="none" xmlns="http://www.w3.org/2000/svg">
<path d="M14.5109 23.0737H13.9632V18.6323C13.9632 18.1059 13.5366 17.6791 13.0101 17.6791H12.9282V8.59241C12.9282 8.23148 12.7244 7.90144 12.4013 7.73991L5.02519 4.05084C4.72984 3.90316 4.37896 3.91879 4.09784 4.09252C3.81672 4.26612 3.64567 4.57291 3.64567 4.90333V17.6791H3.56382C3.0373 17.6791 2.61067 18.1059 2.61067 18.6323V23.0737H2.06204C1.53552 23.0737 1.10889 23.5004 1.10889 24.0268V49.0463C1.10889 49.5727 1.53552 49.9994 2.06204 49.9994H14.5107C15.0372 49.9994 15.4638 49.5727 15.4638 49.0463V24.0268C15.4641 23.5004 15.0375 23.0737 14.5109 23.0737ZM5.55222 6.44579L11.022 9.18146V17.6791H5.55222V6.44579ZM4.51735 19.5854H12.057V23.0737H4.51735V19.5854ZM13.5578 48.0931H3.01544V24.98H13.5578V48.0931Z" fill="#552D1E"/>
<path d="M47.9384 38.6699H16.9795C16.453 38.6699 16.0264 39.0967 16.0264 39.6231C16.0264 40.1495 16.453 40.5762 16.9795 40.5762H46.4218L46.2039 41.0293C45.0066 43.5171 42.449 45.1248 39.688 45.1248H16.9795C16.453 45.1248 16.0264 45.5515 16.0264 46.0779C16.0264 46.6043 16.453 47.0311 16.9795 47.0311H39.688C43.1769 47.0311 46.4089 44.9997 47.9216 41.8559L48.7972 40.0364C48.9394 39.741 48.9199 39.3933 48.7454 39.1159C48.5709 38.8384 48.2661 38.6699 47.9384 38.6699Z" fill="#552D1E"/>
<path d="M14.7785 7.00871C18.3324 3.71843 22.9589 1.9063 27.8059 1.9063C38.3813 1.9063 46.985 10.5101 46.985 21.0855C46.985 26.787 44.4726 32.1555 40.0923 35.8144C39.6882 36.152 39.6343 36.753 39.9719 37.157C40.1603 37.3827 40.431 37.4991 40.7039 37.4991C40.9193 37.4991 41.1361 37.4264 41.3144 37.2775C46.1299 33.2553 48.8915 27.3535 48.8915 21.0853C48.8913 9.45894 39.4324 0 27.8059 0C22.4772 0 17.3908 1.99234 13.4833 5.60999C13.0971 5.96761 13.0738 6.57064 13.4315 6.95698C13.789 7.34307 14.392 7.36633 14.7785 7.00871Z" fill="#552D1E"/>
<path d="M27.8049 5.87115C36.1947 5.87115 43.0203 12.6967 43.0203 21.0865C43.0203 29.4762 36.1947 36.3018 27.8049 36.3018C24.0331 36.3018 20.4152 34.9117 17.6173 32.3879C17.2266 32.0354 16.6238 32.0663 16.2711 32.4572C15.9185 32.848 15.9495 33.4508 16.3404 33.8033C19.4891 36.6438 23.5606 38.2081 27.8049 38.2081C37.2458 38.2081 44.9266 30.5274 44.9266 21.0865C44.9266 11.6456 37.2458 3.96484 27.8049 3.96484C22.3828 3.96484 17.2246 6.57521 14.0069 10.9476C13.6948 11.3716 13.7856 11.9683 14.2096 12.2803C14.6335 12.5921 15.23 12.5015 15.5422 12.0776C18.4022 8.19137 22.9865 5.87115 27.8049 5.87115Z" fill="#552D1E"/>
<path d="M38.291 13.577L20.8969 30.9712C20.5246 31.3434 20.5246 31.9469 20.8969 32.319C21.083 32.5051 21.327 32.5982 21.5709 32.5982C21.8148 32.5982 22.0588 32.5052 22.245 32.319L39.639 14.9249C40.0112 14.5527 40.0112 13.9491 39.639 13.577C39.2666 13.2048 38.6632 13.2048 38.291 13.577Z" fill="#552D1E"/>
<path d="M26.1937 31.0876C25.8215 31.4599 25.8215 32.0634 26.1937 32.4355C26.3799 32.6216 26.6239 32.7147 26.8678 32.7147C27.1117 32.7147 27.3557 32.6217 27.5419 32.4355L40.6013 19.3761C40.9735 19.0038 40.9735 18.4003 40.6013 18.0282C40.2289 17.656 39.6255 17.656 39.2533 18.0282L26.1937 31.0876Z" fill="#552D1E"/>
</svg>
