<svg width="50" height="50" viewBox="0 0 50 50" fill="none" xmlns="http://www.w3.org/2000/svg">
<path d="M48.6022 3.10557H47.9294V0.776367C47.9294 0.347559 47.5818 0 47.153 0H41.1489C40.72 0 40.3726 0.347656 40.3726 0.776367V3.10557H39.4927C39.0638 3.10557 38.7163 3.45322 38.7163 3.88193V6.36641C38.7163 6.79522 39.0639 7.14277 39.4927 7.14277H40.3726V9.47197C40.3726 9.90078 40.7201 10.2483 41.1489 10.2483C41.5778 10.2483 41.9253 9.90068 41.9253 9.47197V7.14287H46.3767V18.3747C46.3767 23.0839 42.5454 26.915 37.8363 26.915H31.9875V22.2566H38.0434C40.1839 22.2566 41.9254 20.5152 41.9254 18.3746V13.6127C41.9254 13.1839 41.5778 12.8363 41.149 12.8363C40.7201 12.8363 40.3727 13.184 40.3727 13.6127V18.3746C40.3727 19.659 39.3277 20.7038 38.0435 20.7038H31.9876V19.6169C31.9876 19.1881 31.64 18.8405 31.2112 18.8405H28.7268C28.2978 18.8405 27.9504 19.1882 27.9504 19.6169V20.7038H26.1902V15.2173H27.0233C27.3623 16.4106 28.4611 17.2877 29.7616 17.2877C31.3312 17.2877 32.6084 16.0106 32.6084 14.4409C32.6084 12.8712 31.3312 11.5941 29.7616 11.5941C28.4611 11.5941 27.3622 12.4712 27.0233 13.6646H23.8043C23.4653 12.4712 22.3665 11.5941 21.066 11.5941C19.4964 11.5941 18.2192 12.8712 18.2192 14.4409C18.2192 16.0106 19.4964 17.2877 21.066 17.2877C22.3665 17.2877 23.4654 16.4106 23.8043 15.2173H24.6374V20.7038H22.8775V19.6169C22.8775 19.1881 22.53 18.8405 22.1012 18.8405H19.6167C19.1878 18.8405 18.8403 19.1882 18.8403 19.6169V20.7038H12.3703C6.80488 20.7038 2.27715 25.2315 2.27715 30.797V34.3166C2.27715 34.7454 2.62471 35.093 3.05352 35.093C3.48242 35.093 3.82988 34.7453 3.82988 34.3166V30.797C3.82988 26.0878 7.66113 22.2566 12.3702 22.2566H18.8402V26.915H12.1632C10.0226 26.915 8.28115 28.6564 8.28115 30.7971V42.6501H3.83008V38.4575C3.83008 38.0287 3.48252 37.6812 3.05371 37.6812C2.6248 37.6812 2.27734 38.0288 2.27734 38.4575V42.6501H1.39746C0.968555 42.6501 0.621094 42.9978 0.621094 43.4265V45.9109C0.621094 46.3397 0.968652 46.6873 1.39746 46.6873H2.27734V49.0165C2.27734 49.4453 2.6249 49.7929 3.05371 49.7929H9.05781C9.48672 49.7929 9.83418 49.4452 9.83418 49.0165V46.6873H10.507C10.9359 46.6873 11.2834 46.3396 11.2834 45.9109V43.4265C11.2834 42.9977 10.9358 42.6501 10.507 42.6501H9.83418V30.7971C9.83418 29.5127 10.8791 28.4679 12.1634 28.4679H18.8404V29.5548C18.8404 29.9836 19.188 30.3312 19.6168 30.3312H22.1013C22.5302 30.3312 22.8776 29.9835 22.8776 29.5548V28.4679H27.9501V29.5548C27.9501 29.9836 28.2977 30.3312 28.7265 30.3312H31.2109C31.6398 30.3312 31.9873 29.9835 31.9873 29.5548V28.4679H37.8361C43.4016 28.4679 47.9293 23.9401 47.9293 18.3747V7.14287H48.6021C49.0311 7.14287 49.3785 6.79522 49.3785 6.3665V3.88203C49.3787 3.45322 49.0311 3.10557 48.6022 3.10557ZM29.7617 13.147C30.4753 13.147 31.0558 13.7274 31.0558 14.441C31.0558 15.1546 30.4753 15.735 29.7617 15.735C29.0481 15.735 28.4678 15.1545 28.4678 14.441C28.4678 13.7275 29.0481 13.147 29.7617 13.147ZM21.066 15.735C20.3524 15.735 19.772 15.1545 19.772 14.441C19.772 13.7275 20.3524 13.147 21.066 13.147C21.7796 13.147 22.36 13.7274 22.36 14.441C22.36 15.1546 21.7796 15.735 21.066 15.735ZM8.28135 48.2401H3.83008V46.6873H8.28145V48.2401H8.28135ZM9.73066 45.1346H2.17373V44.2029H9.73066V45.1346ZM21.3249 28.7785H20.3933V20.3935H21.3249V28.7785ZM27.9501 26.9151H22.8776V22.2567H27.9501V26.9151ZM30.4346 28.7785H29.5029V20.3935H30.4346V28.7785ZM41.9253 1.55283H46.3767V3.10566H41.9253V1.55283ZM47.8259 5.59004H40.2689V4.6584H47.8259V5.59004Z" fill="#552D1E"/>
<path d="M29.4564 36.409C29.2394 36.0391 28.7637 35.9151 28.3939 36.1321C28.024 36.3491 27.9002 36.8248 28.1171 37.1946C30.3137 40.9388 30.6416 42.5768 30.6416 43.2198C30.6416 46.1024 28.2965 48.4476 25.4139 48.4476C22.5312 48.4476 20.1861 46.1024 20.1861 43.2198C20.1861 40.987 23.5259 35.6985 25.4121 32.9729C25.6878 33.3723 26.0363 33.8859 26.4211 34.4725C26.6562 34.8311 27.1377 34.9311 27.4961 34.6959C27.8547 34.4608 27.9547 33.9794 27.7195 33.6208C26.7813 32.1903 26.072 31.2107 26.0423 31.1697C25.7374 30.7494 25.0902 30.7494 24.7853 31.1697C24.1557 32.038 18.6333 39.752 18.6333 43.2198C18.6333 46.9587 21.675 50.0004 25.4139 50.0004C29.1527 50.0004 32.1944 46.9587 32.1944 43.2198C32.1944 41.7772 31.2988 39.5493 29.4564 36.409Z" fill="black"/>
<path d="M27.3138 37.6659C27.0967 37.296 26.6211 37.1722 26.2513 37.3891C25.8813 37.606 25.7575 38.0817 25.9744 38.4516C28.0802 42.0411 28.1553 43.1821 28.1573 43.2194C28.1573 44.732 26.9267 45.9627 25.4141 45.9627C24.9852 45.9627 24.6377 46.3103 24.6377 46.739C24.6377 47.1678 24.9853 47.5154 25.4141 47.5154C27.7829 47.5154 29.7101 45.5882 29.7101 43.2193C29.7101 42.8749 29.5374 41.4562 27.3138 37.6659Z" fill="black"/>
</svg>
