<svg width="24" height="24" viewBox="0 0 24 24" fill="none" xmlns="http://www.w3.org/2000/svg">
<path d="M0 12C0 5.37258 5.37258 0 12 0C18.6274 0 24 5.37258 24 12C24 18.6274 18.6274 24 12 24C5.37258 24 0 18.6274 0 12Z" fill="#1769FF"/>
<path fill-rule="evenodd" clip-rule="evenodd" d="M11.8353 10.0225C11.8353 9.55991 11.7141 9.16343 11.4726 8.83155C11.0699 8.29104 10.3873 8.01411 9.4225 8H5.6001V15.8032H9.16436C9.56624 15.8032 9.93802 15.7691 10.282 15.6986C10.6259 15.6273 10.9232 15.4974 11.1753 15.3065C11.3995 15.1402 11.5862 14.9353 11.7352 14.6925C11.9708 14.3258 12.0882 13.9107 12.0882 13.4482C12.0882 12.9997 11.9851 12.6181 11.7804 12.3048C11.5734 11.9907 11.2694 11.7613 10.866 11.6158C11.1316 11.4821 11.3326 11.3336 11.4695 11.1718C11.7141 10.8822 11.8353 10.4984 11.8353 10.0225ZM17.1689 9.33498H13.7792V8.36384H17.1689V9.33498ZM14.1743 12.3469C14.23 11.9712 14.3663 11.6734 14.5822 11.4537C14.7982 11.2339 15.1038 11.124 15.4951 11.124C15.8564 11.124 16.1582 11.2272 16.4035 11.4344C16.6458 11.643 16.7828 11.9459 16.8107 12.3469H14.1743ZM16.8701 10.1499C17.2788 10.3296 17.6152 10.6147 17.8801 11.0038C18.1217 11.3468 18.2767 11.7447 18.3475 12.1969C18.3889 12.4612 18.4054 12.8443 18.3986 13.3425H14.1367C14.1623 13.9209 14.364 14.327 14.7493 14.5594C14.9826 14.7042 15.2634 14.7769 15.593 14.7769C15.9399 14.7769 16.2237 14.6886 16.4412 14.5126C16.5608 14.4168 16.6662 14.2847 16.7565 14.1154H18.3181C18.2767 14.4569 18.0871 14.8052 17.7514 15.1586C17.2276 15.7191 16.4938 15.9998 15.5508 15.9998C14.7719 15.9998 14.0848 15.7637 13.491 15.29C12.8942 14.817 12.5977 14.0464 12.5977 12.9802C12.5977 11.9801 12.8664 11.2131 13.403 10.6793C13.9411 10.147 14.6372 9.87893 15.4944 9.87893C16.0039 9.87893 16.4622 9.96951 16.8701 10.1499ZM7.17679 14.4492V12.3681H9.12449C9.46315 12.3711 9.72731 12.4156 9.91546 12.5003C10.2519 12.6525 10.4189 12.9309 10.4189 13.3378C10.4189 13.8174 10.2458 14.1411 9.8989 14.3119C9.7085 14.4032 9.44057 14.4492 9.09739 14.4492H7.17679ZM7.17679 9.355V11.0768H9.1004C9.44283 11.0768 9.72204 11.0122 9.93728 10.883C10.151 10.7538 10.2586 10.5251 10.2586 10.1984C10.2586 9.83388 10.1172 9.59407 9.83418 9.47676C9.58883 9.39583 9.27726 9.355 8.89871 9.355H7.17679Z" fill="white"/>
</svg>
