<svg width="48" height="48" viewBox="0 0 48 48" fill="none" xmlns="http://www.w3.org/2000/svg">
<g clip-path="url(#clip0)">
<path d="M42.1403 5.73535H5.86965C2.63191 5.73535 0 8.36726 0 11.605V36.3946C0 39.6323 2.63191 42.2642 5.86965 42.2642H42.1304C45.3681 42.2642 48 39.6323 48 36.3946V11.6149C48.0099 8.37719 45.378 5.73535 42.1403 5.73535ZM45.3284 36.3946C45.3284 38.1525 43.8982 39.5827 42.1403 39.5827H5.86965C4.11173 39.5827 2.68156 38.1525 2.68156 36.3946V11.6149C2.68156 9.85702 4.11173 8.42685 5.86965 8.42685H42.1304C43.8883 8.42685 45.3184 9.85702 45.3184 11.6149V36.3946H45.3284Z" fill="#552D1E"/>
<path d="M30.2718 23.6917L42.0111 13.164C42.5574 12.6675 42.607 11.8233 42.1104 11.2671C41.6138 10.7208 40.7696 10.6712 40.2135 11.1678L24.0248 25.6979L20.8665 22.8773C20.8566 22.8673 20.8466 22.8574 20.8466 22.8475C20.7771 22.778 20.7076 22.7184 20.6281 22.6588L7.77648 11.1578C7.2203 10.6613 6.3761 10.7109 5.87952 11.2671C5.38293 11.8233 5.43259 12.6675 5.98877 13.164L17.8671 23.7811L6.03842 34.8549C5.50211 35.3614 5.47232 36.2056 5.97883 36.7519C6.24699 37.03 6.60453 37.1789 6.96207 37.1789C7.28982 37.1789 7.61757 37.0598 7.87579 36.8214L19.8832 25.5886L23.1408 28.4986C23.3991 28.7271 23.7169 28.8363 24.0347 28.8363C24.3525 28.8363 24.6803 28.7171 24.9286 28.4887L28.2755 25.4893L40.2135 36.8313C40.4717 37.0796 40.8094 37.1988 41.1371 37.1988C41.4947 37.1988 41.8423 37.0598 42.1104 36.7817C42.617 36.2454 42.5971 35.3912 42.0608 34.8847L30.2718 23.6917Z" fill="#552D1E"/>
</g>
<defs>
<clipPath id="clip0">
<rect width="48" height="48" fill="white"/>
</clipPath>
</defs>
</svg>
