<svg width="30" height="32" viewBox="0 0 30 32" fill="none" xmlns="http://www.w3.org/2000/svg">
<circle cx="14.9711" cy="14.9711" r="14.1968" stroke="white" stroke-width="1.54874"/>
<path d="M17.8508 16.4211H16.0359V21.8417H13.616V16.4211H11.6559V14.1706H13.616V12.4767C13.616 11.8314 13.737 11.2829 13.979 10.8312C14.2209 10.3794 14.5597 10.0407 14.9953 9.8148C15.447 9.57281 15.9633 9.45181 16.5441 9.45181C16.8022 9.45181 17.0764 9.46795 17.3668 9.50021C17.6572 9.51634 17.8831 9.54054 18.0444 9.57281L18.2864 9.59701V11.5087H17.3184C16.8667 11.5087 16.536 11.6297 16.3263 11.8717C16.1327 12.0976 16.0359 12.3799 16.0359 12.7187V14.1706H18.1896L17.8508 16.4211Z" fill="white"/>
</svg>
