<svg width="17" height="18" viewBox="0 0 17 18" fill="none" xmlns="http://www.w3.org/2000/svg">
<path fill-rule="evenodd" clip-rule="evenodd" d="M8.59462 7.76711V9.89822H11.6091C11.169 11.1385 9.98411 12.0293 8.59462 12.0293C6.83219 12.0293 5.39796 10.5951 5.39796 8.83266C5.39796 7.07023 6.83219 5.63599 8.59462 5.63599C9.35863 5.63599 10.0939 5.90984 10.665 6.40746L12.0651 4.8006C11.1061 3.9652 9.87436 3.50488 8.59462 3.50488C5.65689 3.50488 3.26685 5.89492 3.26685 8.83266C3.26685 11.7704 5.65689 14.1604 8.59462 14.1604C11.5324 14.1604 13.9224 11.7704 13.9224 8.83266V7.76711H8.59462Z" fill="white"/>
<mask id="mask0" mask-type="alpha" maskUnits="userSpaceOnUse" x="3" y="3" width="11" height="12">
<path fill-rule="evenodd" clip-rule="evenodd" d="M8.59462 7.76711V9.89822H11.6091C11.169 11.1385 9.98411 12.0293 8.59462 12.0293C6.83219 12.0293 5.39796 10.5951 5.39796 8.83266C5.39796 7.07023 6.83219 5.63599 8.59462 5.63599C9.35863 5.63599 10.0939 5.90984 10.665 6.40746L12.0651 4.8006C11.1061 3.9652 9.87436 3.50488 8.59462 3.50488C5.65689 3.50488 3.26685 5.89492 3.26685 8.83266C3.26685 11.7704 5.65689 14.1604 8.59462 14.1604C11.5324 14.1604 13.9224 11.7704 13.9224 8.83266V7.76711H8.59462Z" fill="white"/>
</mask>
<g mask="url(#mask0)">
</g>
</svg>
