<svg width="31" height="32" viewBox="0 0 31 32" fill="none" xmlns="http://www.w3.org/2000/svg">
<circle cx="15.3432" cy="14.9711" r="14.1968" stroke="white" stroke-width="1.54874"/>
<path d="M13.3831 13.6866C13.9316 13.1381 14.593 12.8639 15.3674 12.8639C16.1418 12.8639 16.7951 13.1381 17.3275 13.6866C17.876 14.219 18.1503 14.8724 18.1503 15.6468C18.1503 16.4211 17.876 17.0826 17.3275 17.6311C16.7951 18.1635 16.1418 18.4296 15.3674 18.4296C14.593 18.4296 13.9316 18.1635 13.3831 17.6311C12.8507 17.0826 12.5845 16.4211 12.5845 15.6468C12.5845 14.8724 12.8507 14.219 13.3831 13.6866ZM14.0848 16.9293C14.4398 17.2842 14.8673 17.4617 15.3674 17.4617C15.8675 17.4617 16.295 17.2842 16.6499 16.9293C17.0049 16.5744 17.1823 16.1469 17.1823 15.6468C17.1823 15.1466 17.0049 14.7191 16.6499 14.3642C16.295 14.0093 15.8675 13.8318 15.3674 13.8318C14.8673 13.8318 14.4398 14.0093 14.0848 14.3642C13.7299 14.7191 13.5525 15.1466 13.5525 15.6468C13.5525 16.1469 13.7299 16.5744 14.0848 16.9293ZM18.7069 12.3073C18.8359 12.4202 18.9004 12.5654 18.9004 12.7429C18.9004 12.9203 18.8359 13.0736 18.7069 13.2027C18.5939 13.3317 18.4487 13.3963 18.2713 13.3963C18.0938 13.3963 17.9405 13.3317 17.8115 13.2027C17.6824 13.0736 17.6179 12.9203 17.6179 12.7429C17.6179 12.5654 17.6824 12.4202 17.8115 12.3073C17.9405 12.1782 18.0938 12.1137 18.2713 12.1137C18.4487 12.1137 18.5939 12.1782 18.7069 12.3073ZM20.7638 13.4205C20.7799 13.856 20.788 14.5981 20.788 15.6468C20.788 16.6954 20.7799 17.4375 20.7638 17.8731C20.7154 18.8572 20.4169 19.6235 19.8684 20.172C19.336 20.7044 18.5778 20.9867 17.5937 21.0189C17.1581 21.0512 16.416 21.0673 15.3674 21.0673C14.3188 21.0673 13.5767 21.0512 13.1411 21.0189C12.157 20.9705 11.3988 20.6802 10.8664 20.1478C10.6566 19.9542 10.4873 19.7283 10.3582 19.4702C10.2291 19.2121 10.1323 18.962 10.0678 18.72C10.0194 18.478 9.99521 18.1957 9.99521 17.8731C9.96294 17.4375 9.94681 16.6954 9.94681 15.6468C9.94681 14.5981 9.96294 13.848 9.99521 13.3963C10.0436 12.4283 10.334 11.6781 10.8664 11.1457C11.3988 10.5972 12.157 10.2988 13.1411 10.2504C13.5767 10.2342 14.3188 10.2262 15.3674 10.2262C16.416 10.2262 17.1581 10.2342 17.5937 10.2504C18.5778 10.2988 19.336 10.5972 19.8684 11.1457C20.4169 11.6781 20.7154 12.4364 20.7638 13.4205ZM19.6022 18.841C19.6506 18.712 19.6909 18.5506 19.7232 18.357C19.7555 18.1473 19.7797 17.9053 19.7958 17.6311C19.8119 17.3407 19.82 17.1068 19.82 16.9293C19.82 16.7518 19.82 16.5018 19.82 16.1791C19.82 15.8565 19.82 15.679 19.82 15.6468C19.82 15.5984 19.82 15.4209 19.82 15.1144C19.82 14.7917 19.82 14.5417 19.82 14.3642C19.82 14.1868 19.8119 13.9609 19.7958 13.6866C19.7797 13.3963 19.7555 13.1543 19.7232 12.9607C19.6909 12.7509 19.6506 12.5816 19.6022 12.4525C19.4086 11.9524 19.0618 11.6055 18.5617 11.4119C18.4326 11.3635 18.2632 11.3232 18.0535 11.2909C17.8599 11.2587 17.6179 11.2345 17.3275 11.2183C17.0533 11.2022 16.8274 11.1941 16.6499 11.1941C16.4886 11.1941 16.2386 11.1941 15.8998 11.1941C15.5771 11.1941 15.3997 11.1941 15.3674 11.1941C15.3351 11.1941 15.1577 11.1941 14.835 11.1941C14.5124 11.1941 14.2623 11.1941 14.0848 11.1941C13.9074 11.1941 13.6735 11.2022 13.3831 11.2183C13.1088 11.2345 12.8668 11.2587 12.6571 11.2909C12.4635 11.3232 12.3022 11.3635 12.1731 11.4119C11.673 11.6055 11.3262 11.9524 11.1326 12.4525C11.0842 12.5816 11.0438 12.7509 11.0116 12.9607C10.9793 13.1543 10.9551 13.3963 10.939 13.6866C10.9228 13.9609 10.9148 14.1868 10.9148 14.3642C10.9148 14.5255 10.9148 14.7756 10.9148 15.1144C10.9148 15.437 10.9148 15.6145 10.9148 15.6468C10.9148 15.7113 10.9148 15.8646 10.9148 16.1065C10.9148 16.3324 10.9148 16.526 10.9148 16.6873C10.9148 16.8325 10.9148 17.0261 10.9148 17.2681C10.9309 17.5101 10.947 17.7198 10.9632 17.8973C10.9793 18.0586 11.0035 18.228 11.0358 18.4054C11.068 18.5829 11.1003 18.7281 11.1326 18.841C11.3423 19.3411 11.6891 19.688 12.1731 19.8816C12.3022 19.93 12.4635 19.9703 12.6571 20.0026C12.8668 20.0348 13.1088 20.059 13.3831 20.0752C13.6735 20.0913 13.8993 20.0994 14.0606 20.0994C14.2381 20.0994 14.4882 20.0994 14.8108 20.0994C15.1496 20.0994 15.3351 20.0994 15.3674 20.0994C15.4158 20.0994 15.5932 20.0994 15.8998 20.0994C16.2224 20.0994 16.4725 20.0994 16.6499 20.0994C16.8274 20.0994 17.0533 20.0913 17.3275 20.0752C17.6179 20.059 17.8599 20.0348 18.0535 20.0026C18.2632 19.9703 18.4326 19.93 18.5617 19.8816C19.0618 19.6719 19.4086 19.325 19.6022 18.841Z" fill="white"/>
</svg>
