<svg width="24" height="24" viewBox="0 0 24 24" fill="none" xmlns="http://www.w3.org/2000/svg">
<path fill-rule="evenodd" clip-rule="evenodd" d="M12 0C5.37258 0 0 5.37258 0 12C0 18.6274 5.37258 24 12 24C18.6274 24 24 18.6274 24 12C24 5.37258 18.6274 0 12 0ZM9.36154 5.63906C10.0442 5.60799 10.2624 5.60039 12.0005 5.60039H11.9985C13.7372 5.60039 13.9545 5.60799 14.6372 5.63906C15.3185 5.67026 15.7839 5.77813 16.1919 5.93639C16.6132 6.09973 16.9692 6.3184 17.3252 6.6744C17.6812 7.03014 17.8999 7.38721 18.0639 7.80815C18.2212 8.21508 18.3292 8.68016 18.3612 9.3615C18.3919 10.0442 18.3999 10.2623 18.3999 12.0005C18.3999 13.7386 18.3919 13.9562 18.3612 14.6389C18.3292 15.32 18.2212 15.7852 18.0639 16.1922C17.8999 16.613 17.6812 16.9701 17.3252 17.3258C16.9696 17.6818 16.6131 17.9011 16.1923 18.0645C15.7851 18.2228 15.3195 18.3307 14.6381 18.3619C13.9555 18.3929 13.738 18.4005 11.9997 18.4005C10.2617 18.4005 10.0437 18.3929 9.36101 18.3619C8.6798 18.3307 8.2146 18.2228 7.80739 18.0645C7.38672 17.9011 7.02965 17.6818 6.67405 17.3258C6.31818 16.9701 6.09951 16.613 5.93591 16.1921C5.77777 15.7852 5.6699 15.3201 5.63857 14.6388C5.60764 13.9561 5.5999 13.7386 5.5999 12.0005C5.5999 10.2623 5.6079 10.044 5.63844 9.36136C5.6691 8.68029 5.7771 8.21508 5.93577 7.80801C6.09977 7.38721 6.31844 7.03014 6.67445 6.6744C7.03018 6.31853 7.38725 6.09986 7.80819 5.93639C8.21513 5.77813 8.6802 5.67026 9.36154 5.63906Z" fill="white"/>
<path fill-rule="evenodd" clip-rule="evenodd" d="M11.4265 6.75355C11.538 6.75338 11.6579 6.75343 11.7873 6.75349L12.0006 6.75355C13.7094 6.75355 13.912 6.75969 14.5868 6.79035C15.2108 6.81889 15.5495 6.92315 15.7751 7.01076C16.0737 7.12676 16.2867 7.26543 16.5105 7.48943C16.7345 7.71343 16.8732 7.92677 16.9895 8.22544C17.0771 8.45077 17.1815 8.78944 17.2099 9.41345C17.2405 10.0881 17.2472 10.2908 17.2472 11.9988C17.2472 13.7068 17.2405 13.9095 17.2099 14.5842C17.1813 15.2082 17.0771 15.5468 16.9895 15.7722C16.8735 16.0709 16.7345 16.2835 16.5105 16.5074C16.2865 16.7314 16.0739 16.8701 15.7751 16.9861C15.5497 17.0741 15.2108 17.1781 14.5868 17.2066C13.9121 17.2373 13.7094 17.2439 12.0006 17.2439C10.2917 17.2439 10.0891 17.2373 9.41447 17.2066C8.79046 17.1778 8.45179 17.0735 8.22605 16.9859C7.92739 16.8699 7.71405 16.7313 7.49005 16.5073C7.26604 16.2833 7.12738 16.0705 7.01111 15.7716C6.92351 15.5463 6.81911 15.2076 6.79071 14.5836C6.76004 13.909 6.75391 13.7063 6.75391 11.9972C6.75391 10.2881 6.76004 10.0865 6.79071 9.41185C6.81924 8.78784 6.92351 8.44917 7.01111 8.22357C7.12711 7.9249 7.26604 7.71156 7.49005 7.48756C7.71405 7.26356 7.92739 7.12489 8.22605 7.00862C8.45166 6.92062 8.79046 6.81662 9.41447 6.78795C10.0049 6.76129 10.2337 6.75329 11.4265 6.75195V6.75355ZM15.4169 7.81579C14.9929 7.81579 14.6489 8.15939 14.6489 8.58353C14.6489 9.00753 14.9929 9.35154 15.4169 9.35154C15.8409 9.35154 16.1849 9.00753 16.1849 8.58353C16.1849 8.15953 15.8409 7.81552 15.4169 7.81552V7.81579ZM8.71399 12C8.71399 10.1849 10.1855 8.71335 12.0006 8.71328C13.8156 8.71328 15.2869 10.1849 15.2869 12C15.2869 13.8151 13.8158 15.286 12.0007 15.286C10.1856 15.286 8.71399 13.8151 8.71399 12Z" fill="white"/>
<path d="M12.0005 9.86719C13.1787 9.86719 14.1339 10.8223 14.1339 12.0005C14.1339 13.1787 13.1787 14.1339 12.0005 14.1339C10.8223 14.1339 9.86719 13.1787 9.86719 12.0005C9.86719 10.8223 10.8223 9.86719 12.0005 9.86719Z" fill="white"/>
</svg>
