<svg width="24" height="24" viewBox="0 0 24 24" fill="none" xmlns="http://www.w3.org/2000/svg">
<path d="M0 12C0 5.37258 5.37258 0 12 0C18.6274 0 24 5.37258 24 12C24 18.6274 18.6274 24 12 24C5.37258 24 0 18.6274 0 12Z" fill="#E3B873"/>
<mask id="mask0" mask-type="alpha" maskUnits="userSpaceOnUse" x="0" y="0" width="24" height="24">
<path fill-rule="evenodd" clip-rule="evenodd" d="M0 12C0 5.37258 5.37258 0 12 0C18.6274 0 24 5.37258 24 12C24 18.6274 18.6274 24 12 24C5.37258 24 0 18.6274 0 12Z" fill="white"/>
</mask>
<g mask="url(#mask0)">
<path fill-rule="evenodd" clip-rule="evenodd" d="M12.0007 5.59961C10.2625 5.59961 10.0444 5.60721 9.36174 5.63828C8.6804 5.66948 8.21532 5.77734 7.80839 5.93561C7.38745 6.09908 7.03038 6.31775 6.67464 6.67362C6.31864 7.02936 6.09997 7.38643 5.93597 7.80723C5.7773 8.2143 5.6693 8.67951 5.63863 9.36058C5.6081 10.0433 5.6001 10.2615 5.6001 11.9997C5.6001 13.7378 5.60783 13.9553 5.63876 14.638C5.6701 15.3193 5.77797 15.7844 5.9361 16.1913C6.0997 16.6123 6.31837 16.9693 6.67424 17.3251C7.02985 17.6811 7.38692 17.9003 7.80759 18.0637C8.21479 18.222 8.68 18.3299 9.3612 18.3611C10.0439 18.3921 10.2619 18.3997 11.9999 18.3997C13.7382 18.3997 13.9557 18.3921 14.6383 18.3611C15.3197 18.3299 15.7853 18.222 16.1925 18.0637C16.6133 17.9003 16.9698 17.6811 17.3254 17.3251C17.6814 16.9693 17.9001 16.6123 18.0641 16.1915C18.2214 15.7844 18.3294 15.3192 18.3614 14.6381C18.3921 13.9554 18.4001 13.7378 18.4001 11.9997C18.4001 10.2615 18.3921 10.0434 18.3614 9.36072C18.3294 8.67937 18.2214 8.2143 18.0641 7.80737C17.9001 7.38643 17.6814 7.02936 17.3254 6.67362C16.9694 6.31762 16.6134 6.09895 16.1921 5.93561C15.7841 5.77734 15.3187 5.66948 14.6374 5.63828C13.9547 5.60721 13.7374 5.59961 11.9987 5.59961H12.0007ZM11.7872 6.75278H11.7874L12.0007 6.75284C13.7095 6.75284 13.9121 6.75898 14.5869 6.78964C15.2109 6.81818 15.5495 6.92245 15.7751 7.01005C16.0738 7.12605 16.2868 7.26472 16.5106 7.48872C16.7346 7.71272 16.8733 7.92606 16.9896 8.22473C17.0772 8.45006 17.1816 8.78873 17.21 9.41274C17.2406 10.0874 17.2473 10.2901 17.2473 11.9981C17.2473 13.7061 17.2406 13.9088 17.21 14.5835C17.1814 15.2075 17.0772 15.5461 16.9896 15.7715C16.8736 16.0701 16.7346 16.2828 16.5106 16.5067C16.2866 16.7307 16.0739 16.8694 15.7751 16.9854C15.5498 17.0734 15.2109 17.1774 14.5869 17.2059C13.9122 17.2366 13.7095 17.2432 12.0007 17.2432C10.2918 17.2432 10.0892 17.2366 9.41455 17.2059C8.79054 17.1771 8.45187 17.0728 8.22613 16.9852C7.92746 16.8692 7.71413 16.7305 7.49013 16.5065C7.26612 16.2825 7.12746 16.0697 7.01119 15.7709C6.92359 15.5456 6.81919 15.2069 6.79079 14.5829C6.76012 13.9083 6.75399 13.7056 6.75399 11.9965C6.75399 10.2874 6.76012 10.0858 6.79079 9.41114C6.81932 8.78713 6.92359 8.44846 7.01119 8.22286C7.12719 7.92419 7.26612 7.71085 7.49013 7.48685C7.71413 7.26285 7.92746 7.12418 8.22613 7.00791C8.45174 6.91991 8.79054 6.81591 9.41455 6.78724C10.005 6.76058 10.2338 6.75258 11.4266 6.75124V6.75284C11.538 6.75267 11.6579 6.75272 11.7872 6.75278ZM14.649 8.58331C14.649 8.15917 14.993 7.81557 15.417 7.81557V7.8153C15.841 7.8153 16.185 8.15931 16.185 8.58331C16.185 9.00731 15.841 9.35132 15.417 9.35132C14.993 9.35132 14.649 9.00731 14.649 8.58331ZM12.0006 8.71306C10.1855 8.71313 8.714 10.1847 8.714 11.9998C8.714 13.8148 10.1856 15.2858 12.0007 15.2858C13.8158 15.2858 15.2869 13.8148 15.2869 11.9998C15.2869 10.1847 13.8157 8.71306 12.0006 8.71306ZM14.1341 11.9998C14.1341 10.8215 13.1788 9.86643 12.0007 9.86643C10.8224 9.86643 9.86734 10.8215 9.86734 11.9998C9.86734 13.1779 10.8224 14.1331 12.0007 14.1331C13.1788 14.1331 14.1341 13.1779 14.1341 11.9998Z" fill="black"/>
</g>
</svg>
