<svg width="24" height="24" viewBox="0 0 24 24" fill="none" xmlns="http://www.w3.org/2000/svg">
<path fill-rule="evenodd" clip-rule="evenodd" d="M12 0C5.37258 0 0 5.37258 0 12C0 18.6274 5.37258 24 12 24C18.6274 24 24 18.6274 24 12C24 5.37258 18.6274 0 12 0ZM5.76087 9.93937H8.48034V18.1102H5.76087V9.93937ZM8.65928 7.41135C8.64163 6.6102 8.06873 6 7.13842 6C6.20811 6 5.5999 6.6102 5.5999 7.41135C5.5999 8.1959 6.19013 8.82367 7.10312 8.82367H7.1205C8.06873 8.82367 8.65928 8.1959 8.65928 7.41135ZM15.1565 9.74704C16.9461 9.74704 18.2876 10.9151 18.2876 13.4248L18.2875 18.1098H15.5682V13.7384C15.5682 12.6403 15.1747 11.8911 14.1902 11.8911C13.4389 11.8911 12.9914 12.3962 12.7948 12.8841C12.7229 13.0589 12.7053 13.3025 12.7053 13.5467V18.11H9.9855C9.9855 18.11 10.0213 10.7058 9.9855 9.93913H12.7053V11.0965C13.0662 10.5401 13.7127 9.74704 15.1565 9.74704Z" fill="white"/>
</svg>
