<svg width="30" height="32" viewBox="0 0 30 32" fill="none" xmlns="http://www.w3.org/2000/svg">
<circle cx="15.0287" cy="14.9711" r="14.1968" stroke="white" stroke-width="1.54874"/>
<path d="M10.5761 12.8881C10.5761 12.7429 10.5197 12.6138 10.4067 12.5009L9.31777 11.1941V11.0006H12.7056L15.3433 16.7599L17.6422 11.0006H20.8849V11.1941L19.9411 12.0895C19.8605 12.154 19.8282 12.2428 19.8443 12.3557V18.9378C19.8282 19.0508 19.8605 19.1395 19.9411 19.204L20.8607 20.0994V20.293H16.2629V20.0994L17.2066 19.1798C17.2712 19.1153 17.3034 19.0266 17.3034 18.9136V13.5898L14.6899 20.2688H14.327L11.2537 13.5898V18.0667C11.2376 18.2603 11.294 18.4296 11.4231 18.5748L12.6572 20.0752V20.2688H9.17258V20.0752L10.4067 18.5748C10.5519 18.4296 10.6084 18.2603 10.5761 18.0667V12.8881Z" fill="white"/>
</svg>
