<svg width="10" height="16" viewBox="0 0 10 16" fill="none" xmlns="http://www.w3.org/2000/svg">
<path fill-rule="evenodd" clip-rule="evenodd" d="M4.93349 15.1909C2.51412 15.1909 0.507812 13.1653 0.507812 10.7227V4.16928C0.507812 2.38199 1.98304 0.892578 3.75331 0.892578C5.52358 0.892578 6.9988 2.38199 6.9988 4.16928V10.1269C6.9988 11.2589 6.05466 12.2121 4.93349 12.2121C3.81232 12.2121 2.86817 11.2589 2.86817 10.1269V5.06293C2.86817 4.70547 3.10421 4.46716 3.45826 4.46716C3.81232 4.46716 4.04835 4.70547 4.04835 5.06293V10.1269C4.04835 10.6035 4.46142 11.0206 4.93349 11.0206C5.40556 11.0206 5.81862 10.6035 5.81862 10.1269V4.16928C5.81862 3.03733 4.87448 2.08411 3.75331 2.08411C2.63214 2.08411 1.68799 3.03733 1.68799 4.16928V10.7227C1.68799 12.51 3.16322 13.9994 4.93349 13.9994C6.70376 13.9994 8.17898 12.51 8.17898 10.7227V3.27563C8.17898 2.91818 8.41502 2.67987 8.76907 2.67987C9.12313 2.67987 9.35916 2.91818 9.35916 3.27563V10.7227C9.35916 13.1653 7.35286 15.1909 4.93349 15.1909Z" fill="#C1867C"/>
</svg>
