<svg width="48" height="48" viewBox="0 0 48 48" fill="none" xmlns="http://www.w3.org/2000/svg">
<path d="M37.9351 29.7343C36.9524 28.7111 35.7672 28.164 34.5109 28.164C33.2649 28.164 32.0694 28.7009 31.0462 29.7241L27.8449 32.9153C27.5815 32.7735 27.3181 32.6418 27.0649 32.5101C26.7002 32.3277 26.3557 32.1555 26.0619 31.9731C23.0632 30.0686 20.3381 27.5865 17.7243 24.3751C16.458 22.7744 15.607 21.427 14.989 20.0594C15.8197 19.2996 16.5897 18.5094 17.3394 17.7496C17.623 17.4659 17.9067 17.1721 18.1903 16.8885C20.3178 14.761 20.3178 12.0055 18.1903 9.87801L15.4247 7.11232C15.1106 6.79827 14.7864 6.47409 14.4825 6.1499C13.8747 5.5218 13.2364 4.87343 12.5779 4.26559C11.5952 3.29303 10.4201 2.77637 9.18412 2.77637C7.94817 2.77637 6.75275 3.29303 5.73968 4.26559C5.72954 4.27572 5.72955 4.27572 5.71941 4.28585L2.27497 7.76069C0.978233 9.05742 0.23869 10.6378 0.0765986 12.4715C-0.166539 15.4297 0.704704 18.1852 1.37333 19.9885C3.01451 24.4156 5.46615 28.5186 9.12334 32.9153C13.5606 38.2137 18.8995 42.3977 24.9982 45.3457C27.3283 46.45 30.4384 47.7568 33.9132 47.9797C34.126 47.9898 34.3489 48 34.5515 48C36.8917 48 38.857 47.1591 40.3969 45.4875C40.407 45.4673 40.4273 45.4572 40.4374 45.4369C40.9642 44.7987 41.5721 44.2212 42.2103 43.6032C42.6459 43.1879 43.0917 42.7523 43.5273 42.2964C44.5302 41.2529 45.057 40.0372 45.057 38.7911C45.057 37.5349 44.5201 36.3294 43.4969 35.3163L37.9351 29.7343ZM41.5619 40.4019C41.5518 40.4019 41.5518 40.412 41.5619 40.4019C41.1668 40.8274 40.7616 41.2124 40.326 41.6379C39.6675 42.266 38.9989 42.9245 38.3708 43.664C37.3475 44.7581 36.142 45.2748 34.5616 45.2748C34.4096 45.2748 34.2475 45.2748 34.0956 45.2647C31.0868 45.0722 28.2907 43.897 26.1936 42.8941C20.4596 40.1183 15.4247 36.1774 11.2407 31.1829C7.78608 27.0192 5.47628 23.1695 3.94654 19.0362C3.00438 16.5136 2.65993 14.5483 2.8119 12.6944C2.9132 11.5091 3.36909 10.5264 4.20994 9.68553L7.66451 6.23095C8.16092 5.76493 8.68772 5.51167 9.20438 5.51167C9.84262 5.51167 10.3593 5.89663 10.6835 6.22082C10.6936 6.23095 10.7037 6.24108 10.7139 6.25121C11.3318 6.82866 11.9194 7.42638 12.5374 8.06461C12.8514 8.38879 13.1756 8.71298 13.4998 9.04729L16.2655 11.813C17.3394 12.8868 17.3394 13.8797 16.2655 14.9535C15.9717 15.2473 15.6881 15.5411 15.3943 15.8248C14.5433 16.696 13.7328 17.5065 12.8514 18.2967C12.8312 18.3169 12.8109 18.327 12.8008 18.3473C11.9296 19.2185 12.0916 20.0695 12.274 20.647C12.2841 20.6774 12.2943 20.7078 12.3044 20.7382C13.0237 22.4806 14.0367 24.1218 15.5766 26.0771L15.5867 26.0872C18.3828 29.5316 21.3309 32.2163 24.5828 34.2728C24.9982 34.5362 25.4237 34.749 25.8289 34.9516C26.1936 35.1339 26.5381 35.3062 26.8319 35.4885C26.8724 35.5088 26.9129 35.5392 26.9534 35.5594C27.2979 35.7317 27.622 35.8127 27.9564 35.8127C28.7972 35.8127 29.324 35.2859 29.4962 35.1137L32.9609 31.649C33.3054 31.3045 33.8524 30.8892 34.4907 30.8892C35.1188 30.8892 35.6355 31.2843 35.9495 31.6287C35.9596 31.6388 35.9596 31.6388 35.9698 31.649L41.5518 37.231C42.5953 38.2643 42.5953 39.3281 41.5619 40.4019Z" fill="#552D1E"/>
<path d="M25.9402 11.4172C28.5944 11.8629 31.0056 13.1191 32.9304 15.044C34.8552 16.9688 36.1013 19.3799 36.5572 22.0342C36.6686 22.7028 37.2461 23.1688 37.9046 23.1688C37.9856 23.1688 38.0565 23.1587 38.1376 23.1486C38.8873 23.027 39.3837 22.3179 39.2621 21.5682C38.715 18.3567 37.1954 15.429 34.8755 13.109C32.5556 10.7891 29.6278 9.26947 26.4163 8.72241C25.6667 8.60084 24.9677 9.09725 24.836 9.83679C24.7043 10.5763 25.1905 11.2956 25.9402 11.4172Z" fill="#552D1E"/>
<path d="M47.9443 21.1738C47.0426 15.8856 44.5505 11.0735 40.7211 7.24406C36.8917 3.41464 32.0796 0.922485 26.7913 0.0208505C26.0518 -0.110849 25.3528 0.395688 25.2211 1.13523C25.0995 1.8849 25.5959 2.58393 26.3456 2.71562C31.0665 3.51595 35.372 5.75484 38.7962 9.1689C42.2204 12.5931 44.4492 16.8986 45.2495 21.6196C45.3609 22.2882 45.9384 22.7542 46.5969 22.7542C46.6779 22.7542 46.7489 22.7441 46.8299 22.7339C47.5694 22.6225 48.076 21.9134 47.9443 21.1738Z" fill="#552D1E"/>
</svg>
