<svg width="31" height="32" viewBox="0 0 31 32" fill="none" xmlns="http://www.w3.org/2000/svg">
<circle cx="15.6572" cy="14.9711" r="14.1968" stroke="white" stroke-width="1.54874"/>
<path d="M20.5696 13.1301C20.5857 13.1946 20.5938 13.2995 20.5938 13.4446C20.5938 14.2997 20.4324 15.1547 20.1098 16.0097C19.7871 16.8486 19.3273 17.623 18.7304 18.3328C18.1497 19.0266 17.3914 19.5912 16.4557 20.0268C15.52 20.4624 14.4875 20.6802 13.3582 20.6802C11.9386 20.6802 10.6399 20.301 9.46221 19.5428C9.63967 19.5589 9.84133 19.567 10.0672 19.567C11.2449 19.567 12.3016 19.204 13.2373 18.478C12.6726 18.478 12.1725 18.3167 11.7369 17.9941C11.3175 17.6553 11.0271 17.2358 10.8658 16.7357C11.0271 16.7518 11.1803 16.7599 11.3255 16.7599C11.5514 16.7599 11.7772 16.7357 12.0031 16.6873C11.6159 16.6067 11.2691 16.4453 10.9625 16.2033C10.656 15.9613 10.414 15.671 10.2366 15.3322C10.0591 14.9773 9.97039 14.5981 9.97039 14.1948V14.1464C10.3253 14.3561 10.7044 14.4691 11.1077 14.4852C10.3495 13.969 9.97039 13.2591 9.97039 12.3557C9.97039 11.904 10.0914 11.4765 10.3334 11.0731C10.9625 11.8636 11.7288 12.4928 12.6323 12.9607C13.5518 13.4285 14.5279 13.6866 15.5604 13.735C15.5281 13.5414 15.512 13.3479 15.512 13.1543C15.512 12.4606 15.7539 11.8636 16.2379 11.3635C16.738 10.8634 17.335 10.6134 18.0287 10.6134C18.7708 10.6134 19.3919 10.8796 19.892 11.4119C20.4728 11.299 21.0132 11.0973 21.5133 10.807C21.3197 11.4039 20.9487 11.8717 20.4002 12.2105C20.8841 12.146 21.3681 12.0088 21.8521 11.7991C21.4972 12.3154 21.0697 12.759 20.5696 13.1301Z" fill="white"/>
</svg>
